<mxfile host="app.diagrams.net" modified="2022-07-15T08:13:32.804Z" agent="5.0 (Windows NT 10.0; Win64; x64) AppleWebKit/537.36 (KHTML, like Gecko) Chrome/102.0.5005.115 Safari/537.36 OPR/88.0.4412.74" etag="tCmCagsWjHFVyX4w6dHh" version="20.1.1" type="github">
  <diagram id="xkUqbu4bvT_YvqMfJLwT" name="Page-1">
    <mxGraphModel dx="1382" dy="756" grid="1" gridSize="10" guides="1" tooltips="1" connect="1" arrows="1" fold="1" page="1" pageScale="1" pageWidth="850" pageHeight="1100" math="0" shadow="0">
      <root>
        <mxCell id="0" />
        <mxCell id="1" parent="0" />
        <mxCell id="dQdMVISFhhbUR4HR3qZ8-1" value="" style="swimlane;startSize=0;" parent="1" vertex="1">
          <mxGeometry x="40" y="80" width="760" height="450" as="geometry" />
        </mxCell>
        <mxCell id="dQdMVISFhhbUR4HR3qZ8-2" value="" style="swimlane;startSize=0;" parent="dQdMVISFhhbUR4HR3qZ8-1" vertex="1" collapsed="1">
          <mxGeometry x="710" y="410" width="50" height="40" as="geometry">
            <mxRectangle x="10" y="10" width="200" height="420" as="alternateBounds" />
          </mxGeometry>
        </mxCell>
        <mxCell id="dQdMVISFhhbUR4HR3qZ8-3" value="DASHBOARD" style="rounded=0;whiteSpace=wrap;html=1;align=left;" parent="dQdMVISFhhbUR4HR3qZ8-2" vertex="1">
          <mxGeometry x="10" y="71" width="170" height="40" as="geometry" />
        </mxCell>
        <mxCell id="dQdMVISFhhbUR4HR3qZ8-4" value="KELOLA PRODUK" style="rounded=0;whiteSpace=wrap;html=1;align=left;" parent="dQdMVISFhhbUR4HR3qZ8-2" vertex="1">
          <mxGeometry x="10" y="141" width="170" height="40" as="geometry" />
        </mxCell>
        <mxCell id="dQdMVISFhhbUR4HR3qZ8-5" value="KELOLA KATEGORI" style="rounded=0;whiteSpace=wrap;html=1;align=left;" parent="dQdMVISFhhbUR4HR3qZ8-2" vertex="1">
          <mxGeometry x="10" y="191" width="170" height="40" as="geometry" />
        </mxCell>
        <mxCell id="dQdMVISFhhbUR4HR3qZ8-6" value="KELOLA PEMESANAN" style="rounded=0;whiteSpace=wrap;html=1;align=left;" parent="dQdMVISFhhbUR4HR3qZ8-2" vertex="1">
          <mxGeometry x="10" y="241" width="170" height="40" as="geometry" />
        </mxCell>
        <mxCell id="dQdMVISFhhbUR4HR3qZ8-7" value="&lt;b&gt;NAMA KASIR (KASIR)&lt;/b&gt;" style="rounded=0;whiteSpace=wrap;html=1;align=left;" parent="dQdMVISFhhbUR4HR3qZ8-2" vertex="1">
          <mxGeometry x="10" y="20" width="170" height="40" as="geometry" />
        </mxCell>
        <mxCell id="dQdMVISFhhbUR4HR3qZ8-8" value="&lt;font style=&quot;font-size: 8px;&quot;&gt;LOGOUT&lt;/font&gt;" style="text;html=1;resizable=0;autosize=1;align=center;verticalAlign=middle;points=[];fillColor=none;strokeColor=none;rounded=0;" parent="dQdMVISFhhbUR4HR3qZ8-1" vertex="1">
          <mxGeometry x="235" y="10" width="60" height="30" as="geometry" />
        </mxCell>
        <mxCell id="dQdMVISFhhbUR4HR3qZ8-21" value="&lt;font style=&quot;font-size: 14px;&quot;&gt;TABEL DAFTAR PEMESANAN&lt;/font&gt;" style="rounded=0;whiteSpace=wrap;html=1;" parent="dQdMVISFhhbUR4HR3qZ8-1" vertex="1">
          <mxGeometry x="250" y="150" width="460" height="210" as="geometry" />
        </mxCell>
        <mxCell id="dQdMVISFhhbUR4HR3qZ8-23" value="KOLOM PENCARIAN" style="rounded=0;whiteSpace=wrap;html=1;fontSize=14;" parent="dQdMVISFhhbUR4HR3qZ8-1" vertex="1">
          <mxGeometry x="560" y="110" width="150" height="30" as="geometry" />
        </mxCell>
        <mxCell id="dQdMVISFhhbUR4HR3qZ8-25" value="" style="swimlane;startSize=0;" parent="dQdMVISFhhbUR4HR3qZ8-1" vertex="1">
          <mxGeometry x="20" y="15" width="200" height="420" as="geometry">
            <mxRectangle x="20" y="15" width="50" height="40" as="alternateBounds" />
          </mxGeometry>
        </mxCell>
        <mxCell id="dQdMVISFhhbUR4HR3qZ8-26" value="DASHBOARD" style="rounded=0;whiteSpace=wrap;html=1;align=left;" parent="dQdMVISFhhbUR4HR3qZ8-25" vertex="1">
          <mxGeometry x="10" y="71" width="170" height="40" as="geometry" />
        </mxCell>
        <mxCell id="dQdMVISFhhbUR4HR3qZ8-27" value="KELOLA PRODUK" style="rounded=0;whiteSpace=wrap;html=1;align=left;" parent="dQdMVISFhhbUR4HR3qZ8-25" vertex="1">
          <mxGeometry x="10" y="141" width="170" height="40" as="geometry" />
        </mxCell>
        <mxCell id="dQdMVISFhhbUR4HR3qZ8-28" value="KELOLA KATEGORI" style="rounded=0;whiteSpace=wrap;html=1;align=left;" parent="dQdMVISFhhbUR4HR3qZ8-25" vertex="1">
          <mxGeometry x="10" y="191" width="170" height="40" as="geometry" />
        </mxCell>
        <mxCell id="dQdMVISFhhbUR4HR3qZ8-29" value="KELOLA PEMESANAN" style="rounded=0;whiteSpace=wrap;html=1;align=left;" parent="dQdMVISFhhbUR4HR3qZ8-25" vertex="1">
          <mxGeometry x="10" y="241" width="170" height="40" as="geometry" />
        </mxCell>
        <mxCell id="dQdMVISFhhbUR4HR3qZ8-30" value="&lt;b&gt;NAMA PEMILIK (OWNER)&lt;/b&gt;" style="rounded=0;whiteSpace=wrap;html=1;align=left;" parent="dQdMVISFhhbUR4HR3qZ8-25" vertex="1">
          <mxGeometry x="10" y="20" width="170" height="40" as="geometry" />
        </mxCell>
        <mxCell id="dQdMVISFhhbUR4HR3qZ8-32" value="LAPORAN PENJUALAN" style="rounded=0;whiteSpace=wrap;html=1;align=left;" parent="dQdMVISFhhbUR4HR3qZ8-25" vertex="1">
          <mxGeometry x="10" y="360" width="170" height="40" as="geometry" />
        </mxCell>
        <mxCell id="dQdMVISFhhbUR4HR3qZ8-31" value="KELOLA PEGAWAI" style="rounded=0;whiteSpace=wrap;html=1;align=left;" parent="dQdMVISFhhbUR4HR3qZ8-25" vertex="1">
          <mxGeometry x="10" y="295" width="170" height="40" as="geometry" />
        </mxCell>
        <mxCell id="Z-EyjFjSbkQ2WnIW8n11-1" value="Pemesanan" style="text;html=1;strokeColor=none;fillColor=none;align=center;verticalAlign=middle;whiteSpace=wrap;rounded=0;fontSize=14;" vertex="1" parent="dQdMVISFhhbUR4HR3qZ8-1">
          <mxGeometry x="250" y="50" width="60" height="30" as="geometry" />
        </mxCell>
      </root>
    </mxGraphModel>
  </diagram>
</mxfile>
